<svg width="24" height="24" viewBox="0 0 24 24" fill="none" xmlns="http://www.w3.org/2000/svg">
<path d="M5 19C4.44772 19 4 18.5523 4 18C4 17.4477 4.44772 17 5 17C5.55228 17 6 16.5523 6 16V10C6 8.61667 6.41667 7.39167 7.25 6.325C7.93937 5.42881 8.79983 4.78925 9.83138 4.40632C10.2171 4.26315 10.5 3.91139 10.5 3.5C10.5 3.08333 10.6417 2.73333 10.925 2.45C11.225 2.15 11.5833 2 12 2C12.4167 2 12.7667 2.15 13.05 2.45C13.35 2.73333 13.5 3.08333 13.5 3.5C13.5 3.91139 13.7829 4.26315 14.1686 4.40632C15.2002 4.78925 16.0606 5.42881 16.75 6.325C17.5833 7.39167 18 8.61667 18 10V16C18 16.5523 18.4477 17 19 17C19.5523 17 20 17.4477 20 18C20 18.5523 19.5523 19 19 19H5ZM12 22C11.45 22 10.975 21.8083 10.575 21.425C10.4363 21.2803 10.3228 21.1258 10.2343 20.9615C9.97236 20.4753 10.4477 20 11 20H13C13.5523 20 14.0269 20.4767 13.7572 20.9586C13.6646 21.124 13.5455 21.2795 13.4 21.425C13.0167 21.8083 12.55 22 12 22ZM8 16C8 16.5523 8.44772 17 9 17H15C15.5523 17 16 16.5523 16 16V10C16 8.9 15.6083 7.95833 14.825 7.175C14.0417 6.39167 13.1 6 12 6C10.9 6 9.95833 6.39167 9.175 7.175C8.39167 7.95833 8 8.9 8 10V16Z" fill="#595959"/>
</svg>
