<svg width="40" height="41" viewBox="0 0 40 41" fill="none" xmlns="http://www.w3.org/2000/svg">
<rect x="0.75" y="0.884277" width="38.5" height="38.5" rx="19.25" stroke="#1F1F1F" stroke-width="1.5"/>
<path d="M17.5 23.6343L22.5 18.6343M10 18.1343C10.7956 18.1343 11.5587 18.4503 12.1213 19.013C12.6839 19.5756 13 20.3386 13 21.1343C13 21.9299 12.6839 22.693 12.1213 23.2556C11.5587 23.8182 10.7956 24.1343 10 24.1343V26.1343C10 26.6647 10.2107 27.1734 10.5858 27.5485C10.9609 27.9236 11.4696 28.1343 12 28.1343H28C28.5304 28.1343 29.0391 27.9236 29.4142 27.5485C29.7893 27.1734 30 26.6647 30 26.1343V24.1343C29.2044 24.1343 28.4413 23.8182 27.8787 23.2556C27.3161 22.693 27 21.9299 27 21.1343C27 20.3386 27.3161 19.5756 27.8787 19.013C28.4413 18.4503 29.2044 18.1343 30 18.1343V16.1343C30 15.6038 29.7893 15.0951 29.4142 14.7201C29.0391 14.345 28.5304 14.1343 28 14.1343H12C11.4696 14.1343 10.9609 14.345 10.5858 14.7201C10.2107 15.0951 10 15.6038 10 16.1343V18.1343Z" stroke="#1F1F1F" stroke-width="1.5" stroke-linecap="round" stroke-linejoin="round"/>
</svg>
