<svg width="29" height="30" viewBox="0 0 29 30" fill="none" xmlns="http://www.w3.org/2000/svg">
<path d="M14.6249 15.924C15.2865 15.924 15.8228 15.3877 15.8228 14.7261C15.8228 14.0645 15.2865 13.5281 14.6249 13.5281C13.9633 13.5281 13.427 14.0645 13.427 14.7261C13.427 15.3877 13.9633 15.924 14.6249 15.924Z" stroke="#1F1F1F" stroke-width="2.87501" stroke-linecap="round" stroke-linejoin="round"/>
<path d="M14.6249 7.53853C15.2865 7.53853 15.8228 7.0022 15.8228 6.34061C15.8228 5.67901 15.2865 5.14268 14.6249 5.14268C13.9633 5.14268 13.427 5.67901 13.427 6.34061C13.427 7.0022 13.9633 7.53853 14.6249 7.53853Z" stroke="#1F1F1F" stroke-width="2.87501" stroke-linecap="round" stroke-linejoin="round"/>
<path d="M14.6249 24.3094C15.2865 24.3094 15.8228 23.7731 15.8228 23.1115C15.8228 22.4499 15.2865 21.9136 14.6249 21.9136C13.9633 21.9136 13.427 22.4499 13.427 23.1115C13.427 23.7731 13.9633 24.3094 14.6249 24.3094Z" stroke="#1F1F1F" stroke-width="2.87501" stroke-linecap="round" stroke-linejoin="round"/>
</svg>
