<svg width="40" height="41" viewBox="0 0 40 41" fill="none" xmlns="http://www.w3.org/2000/svg">
<rect x="0.75" y="0.884277" width="38.5" height="38.5" rx="19.25" stroke="#1F1F1F" stroke-width="1.5"/>
<path d="M10.5 17.9676C10.5 17.4077 10.7224 16.8707 11.1183 16.4748C11.5142 16.0789 12.0512 15.8565 12.6111 15.8565H27.3889C27.9488 15.8565 28.4858 16.0789 28.8817 16.4748C29.2776 16.8707 29.5 17.4077 29.5 17.9676M10.5 20.0787H13.6667C14.5111 20.0787 15.3556 20.3954 15.8833 21.0287L17.0444 21.9787C18.7333 23.6676 21.3722 23.6676 23.0611 21.9787L24.2222 21.0287C24.75 20.5009 25.5944 20.0787 26.4389 20.0787H29.5M12.6111 11.6343H27.3889C28.5548 11.6343 29.5 12.5795 29.5 13.7454V28.5232C29.5 29.6891 28.5548 30.6343 27.3889 30.6343H12.6111C11.4452 30.6343 10.5 29.6891 10.5 28.5232V13.7454C10.5 12.5795 11.4452 11.6343 12.6111 11.6343Z" stroke="#1F1F1F" stroke-width="1.5" stroke-linecap="round" stroke-linejoin="round"/>
</svg>
