<svg width="112" height="24" viewBox="0 0 112 24" fill="none" xmlns="http://www.w3.org/2000/svg">
<path d="M22.2003 5.14288C21.9075 4.8312 21.7611 4.51953 21.322 4.36364C21.0293 4.20786 20.5901 4.05197 20.151 3.89608C19.7119 3.7403 19.2727 3.7403 18.8336 3.7403C18.1017 3.7403 17.3699 3.89608 16.638 4.05197C15.9061 4.20786 15.3206 4.51953 14.7351 4.83121V6.54546C15.1742 6.0779 15.7597 5.92211 16.4916 5.61044C17.0771 5.45455 17.809 5.29877 18.3945 5.29877C19.2727 5.29877 20.0046 5.45455 20.5901 5.92212C21.0293 6.38968 21.322 7.01303 21.322 7.94805V9.35063C21.1756 9.19485 20.8829 9.19484 20.5901 9.03896C20.2974 8.88317 19.8583 8.72728 19.4191 8.72728C18.98 8.5715 18.3945 8.5715 17.809 8.5715C17.0771 8.5715 16.3452 8.72728 15.7597 9.03896C15.1742 9.35063 14.7351 9.66241 14.296 10.2858C14.0032 10.9091 13.7104 11.6883 13.7104 12.6234C13.7104 13.4026 13.8568 13.8702 14.1496 14.3377C14.4423 14.8052 14.7351 15.117 15.1742 15.4286C15.6133 15.7403 16.0525 15.8961 16.4916 16.052C16.9307 16.2079 17.5162 16.2079 17.9554 16.2079C18.8336 16.2079 19.5655 16.2079 20.2974 16.052C21.0293 15.8961 21.6148 15.5844 22.0539 15.2727C22.493 14.8052 22.7858 14.1818 22.7858 13.4026V7.63637C22.7858 7.16881 22.7858 6.70135 22.6394 6.23379C22.6394 5.76623 22.493 5.45455 22.2003 5.14288ZM21.322 13.4026C21.322 13.8702 21.0293 14.3377 20.5901 14.4935C20.151 14.6494 19.4191 14.6494 18.3945 14.6494C17.9554 14.6494 17.3699 14.6494 16.9307 14.4935C16.4916 14.3377 16.0525 14.1818 15.7597 13.7143C15.467 13.4026 15.3206 12.9351 15.3206 12.3117C15.3206 11.5325 15.6133 11.065 16.0525 10.5974C16.4916 10.2858 17.2235 9.97408 18.2481 9.97408C18.98 9.97408 19.7119 10.1299 20.2974 10.2858C20.5901 10.4415 21.0293 10.5974 21.1756 10.5974V13.4026H21.322Z" fill="#8C8C8C"/>
<path d="M28.348 0.623413L26.7379 0.623413V3.8961H24.835V5.45457H26.7379V12.7793C26.7379 13.7143 27.0306 14.4935 27.4697 15.117C28.0552 15.5844 28.6407 15.8961 29.3726 15.8961C29.6654 15.8961 29.9581 15.8961 30.2509 15.7403C30.5436 15.7403 30.8364 15.5844 30.9828 15.5844V14.0261C30.8364 14.1819 30.5436 14.1819 30.3973 14.1819C30.1045 14.1819 29.9581 14.3377 29.6654 14.3377C29.0799 14.3377 28.6407 14.1819 28.4944 13.8702C28.348 13.5585 28.2016 13.0909 28.2016 12.3117V5.61046L31.1291 5.61046V4.05199H28.2016V0.623413H28.348Z" fill="#8C8C8C"/>
<path d="M41.6676 5.14288C41.3748 4.8312 41.2284 4.51953 40.7893 4.36364C40.4965 4.20786 40.0574 4.05197 39.6183 3.89608C39.1792 3.7403 38.74 3.7403 38.3009 3.7403C37.569 3.7403 36.8371 3.89608 36.1053 4.05197C35.3734 4.20786 34.7879 4.51953 34.2024 4.83121V6.54546C34.6415 6.0779 35.227 5.76623 35.9589 5.61044C36.5444 5.45455 37.2763 5.29877 37.8618 5.29877C38.74 5.29877 39.4719 5.45455 40.0574 5.92212C40.4965 6.38968 40.7893 7.01303 40.7893 7.94805V9.35063C40.4965 9.19485 40.3502 9.03896 40.0574 9.03896C39.7647 8.88317 39.3255 8.72728 38.8864 8.72728C38.4473 8.5715 37.8618 8.5715 37.2763 8.5715C36.5444 8.5715 35.8125 8.72728 35.227 9.03896C34.6415 9.35063 34.2024 9.66241 33.7632 10.2858C33.4705 10.9091 33.1777 11.6883 33.1777 12.6234C33.1777 13.4026 33.3241 13.8702 33.6169 14.3377C33.9096 14.8052 34.2024 15.117 34.6415 15.4286C35.0806 15.7403 35.5198 15.8961 35.9589 16.052C36.398 16.2079 36.9835 16.2079 37.4226 16.2079C38.3009 16.2079 39.0328 16.2079 39.7647 16.052C40.4966 15.8961 41.0821 15.5844 41.5212 15.2727C41.9603 14.8052 42.2531 14.1818 42.2531 13.4026V7.63637C42.2531 7.16881 42.2531 6.70135 42.1067 6.23379C41.9603 5.76623 41.8139 5.45455 41.6676 5.14288ZM40.6429 13.4026C40.6429 13.8702 40.3502 14.3377 39.911 14.4935C39.4719 14.6494 38.74 14.6494 37.7154 14.6494C37.2763 14.6494 36.6908 14.6494 36.2516 14.4935C35.8125 14.3377 35.3734 14.1818 35.0806 13.7143C34.7879 13.4026 34.6415 12.9351 34.6415 12.3117C34.6415 11.5325 34.9342 11.065 35.3734 10.5974C35.8125 10.2858 36.5444 9.97408 37.569 9.97408C38.3009 9.97408 39.0328 10.1299 39.6183 10.2858C39.911 10.4415 40.3502 10.5974 40.4966 10.5974V13.4026H40.6429Z" fill="#8C8C8C"/>
<path d="M61.8675 15.7403V8.10393C61.8675 7.16891 61.7211 6.38967 61.4284 5.76622C61.1356 5.14288 60.6965 4.67531 60.111 4.36364C59.5255 4.05197 58.6472 3.89618 57.4762 3.89618C56.8907 3.89618 56.4516 3.89618 55.8661 4.05197C55.2806 4.05197 54.8414 4.20785 54.2559 4.51953C54.1096 4.67531 53.9632 4.67531 53.6704 4.8312C53.5241 4.67531 53.2313 4.51953 53.0849 4.36364C52.4994 4.05197 51.6212 3.89618 50.4502 3.89618C50.011 3.89618 49.5719 3.89618 49.2791 3.89618C48.84 3.89618 48.4009 4.05197 48.1081 4.05197C47.669 4.20785 47.3763 4.36364 46.9371 4.51953C46.498 4.67531 46.2052 4.8312 45.7661 4.98709V15.8961H47.3762V5.76622C47.8154 5.61044 48.4009 5.45455 48.84 5.45455C49.2791 5.29876 49.8646 5.29876 50.3038 5.29876C51.0357 5.29876 51.4748 5.45455 51.9139 5.61044C52.353 5.76622 52.6458 6.078 52.7922 6.38967C52.9386 6.70135 53.0849 7.01302 53.2313 7.3247C53.2313 7.63637 53.3777 7.94804 53.3777 8.25972V15.8961L54.9878 15.8961V8.25972C54.9878 7.48058 54.8414 6.85713 54.6951 6.23379C55.1342 5.92211 55.5733 5.76622 56.0125 5.61044C56.4516 5.45455 57.0371 5.45455 57.4762 5.45455C58.2081 5.45455 58.6472 5.61044 59.0864 5.76622C59.5255 5.92211 59.8182 6.23378 59.9646 6.54546C60.111 6.85713 60.2574 7.16881 60.4037 7.48058C60.4037 7.79226 60.5501 8.10393 60.5501 8.41561V16.052H61.8675V15.7403Z" fill="#26A4DA"/>
<path d="M73.7242 7.63637C73.7242 7.16881 73.7242 6.70135 73.5777 6.23379C73.4313 5.76623 73.2848 5.45455 72.9918 5.14288C72.6989 4.8312 72.5524 4.51953 72.114 4.36364C71.821 4.20786 71.3816 4.05197 70.9432 3.89608C70.5037 3.7403 70.0643 3.7403 69.6259 3.7403C68.8935 3.7403 68.1621 3.89608 67.4297 4.05197C66.6983 4.20786 66.1124 4.51953 65.5268 4.83121V6.54546C65.966 6.0779 66.5519 5.92211 67.2832 5.61044C67.8692 5.45455 68.6005 5.29877 69.1864 5.29877C70.0643 5.29877 70.7967 5.45455 71.3816 5.92212C71.821 6.38968 72.114 7.01303 72.114 7.94805V9.35063C71.821 9.19485 71.6745 9.19484 71.3816 9.03896C71.0896 8.88317 70.6502 8.72728 70.2108 8.72728C69.7713 8.5715 69.1864 8.5715 68.6005 8.5715C67.8692 8.5715 67.1368 8.72728 66.5519 9.03896C65.966 9.35063 65.5268 9.66241 65.0877 10.2858C64.6486 10.9091 64.5022 11.5324 64.5022 12.6234C64.5022 13.4026 64.6486 13.8702 64.9413 14.3377C65.2341 14.8052 65.5268 15.117 65.966 15.4286C66.4054 15.7403 66.8438 15.8961 67.2832 16.052C67.7227 16.2079 68.3076 16.2079 68.747 16.2079C69.6259 16.2079 70.3573 16.2079 71.0896 16.052C71.821 15.8961 72.4069 15.5844 72.8453 15.2727C73.2848 14.8052 73.5777 14.1818 73.5777 13.4026V7.63637H73.7242ZM72.114 13.4026C72.114 13.8702 71.821 14.3377 71.3816 14.4935C70.9432 14.6494 70.2108 14.6494 69.1864 14.6494C68.747 14.6494 68.1621 14.6494 67.7227 14.4935C67.2832 14.3377 66.8438 14.1818 66.5519 13.7143C66.2589 13.4026 66.1124 12.9351 66.1124 12.3117C66.1124 11.5325 66.4054 11.065 66.8438 10.5974C67.2832 10.2858 68.0156 9.97408 69.04 9.97408C69.7713 9.97408 70.5037 10.1299 71.0896 10.2858C71.3816 10.4415 71.821 10.5974 71.9675 10.5974V13.4026H72.114Z" fill="#26A4DA"/>
<path d="M82.6534 10.1299C82.3604 9.81819 81.921 9.66241 81.4815 9.50652C81.0431 9.35063 80.7502 9.19484 80.3107 9.03896C79.8723 8.88317 79.4329 8.72728 78.9935 8.5715C78.554 8.41561 78.2621 8.25972 77.9691 7.94805C77.6762 7.63637 77.5297 7.3247 77.5297 6.85714C77.5297 6.38968 77.8226 5.92211 78.2621 5.61044C78.7005 5.29877 79.2864 5.14288 79.8723 5.14288C80.4572 5.14288 81.0431 5.29877 81.4815 5.45455C81.921 5.61044 82.3604 5.92212 82.9453 6.23379V4.67532C82.5069 4.36364 81.921 4.20786 81.4815 4.05197C81.0431 3.89608 80.4572 3.7403 79.7258 3.7403C79.2864 3.7403 78.847 3.7403 78.4086 3.89608C77.9691 4.05197 77.5297 4.20786 77.2367 4.51953C76.7983 4.83121 76.5054 5.14288 76.3589 5.61044C76.3589 6.0779 76.2124 6.54546 76.2124 7.16881C76.2124 7.79226 76.3589 8.25972 76.5054 8.72728C76.7983 9.03896 77.0903 9.35063 77.3832 9.66241C77.6762 9.97408 78.1156 10.1299 78.554 10.2858C78.9935 10.4415 79.4329 10.5974 79.8723 10.7533C80.3107 10.9091 80.6037 11.065 81.0431 11.2208C81.3361 11.3767 81.628 11.5324 81.921 11.8442C82.2139 12.1559 82.2139 12.4676 82.2139 12.9351C82.2139 13.5585 81.921 13.8702 81.4815 14.3377C81.0431 14.6494 80.4572 14.8052 79.7258 14.8052C79.2864 14.8052 78.847 14.8052 78.4086 14.6494C77.9691 14.4935 77.6762 14.4935 77.3832 14.1818C77.0903 14.026 76.6518 13.7143 76.2124 13.5585V15.4286C76.7983 15.7403 77.3832 16.052 77.8226 16.2079C78.4075 16.3637 78.9934 16.5195 79.8723 16.5195C80.4572 16.5195 81.1896 16.3637 81.7745 16.2079C82.3604 15.8961 82.9453 15.5844 83.2383 14.9611C83.6777 14.4935 83.8242 13.7143 83.8242 12.9351C83.8242 12.3117 83.6777 11.8442 83.5312 11.3767C83.3847 10.5974 83.0918 10.2858 82.6534 10.1299Z" fill="#26A4DA"/>
<path d="M88.6548 0.623413L87.0445 0.623413V3.8961H85.1414V5.45457H87.0445V12.7793C87.0445 13.7143 87.3365 14.4935 87.7759 15.117C88.3618 15.5844 88.9467 15.8961 89.6791 15.8961C89.9721 15.8961 90.264 15.8961 90.557 15.7403C90.8499 15.7403 91.1429 15.5844 91.2894 15.5844V14.0261C91.1429 14.1819 90.8499 14.1819 90.7034 14.1819C90.4105 14.1819 90.264 14.3377 89.9721 14.3377C89.3862 14.3377 88.9467 14.1819 88.8003 13.8702C88.6548 13.5585 88.5083 13.0909 88.5083 12.3117V5.61046L91.4358 5.61046V4.05199H88.5083V0.623413H88.6548Z" fill="#26A4DA"/>
<path d="M102.561 7.01302C102.268 6.078 101.683 5.29876 100.951 4.67531C100.22 4.05197 99.3406 3.89618 98.1698 3.89618C96.7061 3.89618 95.5353 4.36364 94.6564 5.45455C93.7785 6.54546 93.3391 7.94804 93.3391 9.97408C93.3391 11.3767 93.4856 12.4676 93.925 13.4026C94.3644 14.3377 94.9493 14.9611 95.6817 15.4286C96.4131 15.8961 97.292 16.052 98.4628 16.052C99.1942 16.052 99.9265 16.052 100.511 15.8961C101.097 15.7403 101.683 15.5844 102.268 15.2727V13.5585C101.975 13.7143 101.683 13.8702 101.244 14.026C100.804 14.1818 100.366 14.3377 99.9265 14.3377C99.4871 14.4935 98.9022 14.4935 98.4628 14.4935C97.292 14.4935 96.4131 14.1818 95.8282 13.4026C95.2423 12.6234 94.9493 11.5325 94.9493 10.1299H103.001C103.001 9.03895 102.854 7.94804 102.561 7.01302ZM95.0958 8.72728C95.0958 8.25972 95.2423 7.79226 95.3888 7.3247C95.6817 6.70135 95.9747 6.078 96.4131 5.92211C96.8525 5.61044 97.4384 5.45455 98.1698 5.45455C99.1942 5.45455 100.073 5.76622 100.511 6.38967C100.951 6.85713 101.244 7.79226 101.39 8.72728H95.0958Z" fill="#26A4DA"/>
<path d="M111.05 3.89618C110.904 3.89618 110.757 3.89618 110.757 3.89618C110.026 3.89618 109.293 4.05197 108.562 4.20785C107.83 4.36364 107.245 4.51953 106.659 4.67531C106.22 4.8312 105.781 4.98709 105.635 5.14287V16.052H107.245V5.76622C107.538 5.76622 107.976 5.61044 108.269 5.61044C108.562 5.61044 109.001 5.45455 109.293 5.45455C109.586 5.45455 110.026 5.45455 110.319 5.45455C110.612 5.45455 111.05 5.45455 111.49 5.45455V3.89618C111.197 3.89618 111.05 3.89618 111.05 3.89618Z" fill="#26A4DA"/>
<path d="M9.90462 2.02597C8.73361 0.779226 6.97709 0 4.63507 0L0.0974121 0L0.0974121 1.55844L4.63507 1.55844C6.53797 1.55844 7.85535 2.02597 8.73361 3.11692C9.61187 4.05195 10.051 5.7662 10.051 7.94802C10.051 10.1298 9.61187 11.6883 8.73361 12.7792C7.85535 13.7143 6.53797 14.3377 4.63507 14.3377H1.70755L1.70755 3.4286H0.0974121L0.0974121 15.8962H4.78145C7.12347 15.8962 8.87999 15.2727 10.051 13.8701C11.222 12.6234 11.8075 10.5974 11.8075 7.94802C11.6611 5.29874 11.0756 3.27271 9.90462 2.02597Z" fill="#8C8C8C"/>
<path d="M0.536539 19.4806H0.0974121L0.0974121 23.8442H0.536539L0.536539 19.4806Z" fill="#8C8C8C"/>
<path d="M12.6854 20.5715C12.539 20.4156 12.2462 20.4156 11.9535 20.4156C11.8071 20.4156 11.6607 20.4156 11.6607 20.4156C11.5144 20.4156 11.368 20.4156 11.368 20.4156C11.2216 20.4156 11.2216 20.4156 11.0752 20.5715C10.9288 20.5715 10.9288 20.7273 10.7825 20.7273V23.6883H11.2216V20.8832C11.368 20.8832 11.5144 20.8831 11.6607 20.7273C11.8071 20.7273 11.9535 20.7273 12.0999 20.7273C12.2462 20.7273 12.3926 20.7273 12.539 20.7273C12.6854 20.7273 12.6854 20.8832 12.8317 20.8832C12.8317 21.0389 12.9781 21.0389 12.9781 21.1948C12.9781 21.3507 12.9781 21.3507 12.9781 21.5065V23.6883H13.2709V21.6624C13.2709 21.3507 13.2709 21.1948 13.1245 21.0389C13.1245 20.8831 12.9781 20.7273 12.6854 20.5715Z" fill="#8C8C8C"/>
<path d="M25.42 20.5715C25.2736 20.4156 24.9809 20.4156 24.6881 20.4156C24.5417 20.4156 24.3954 20.4156 24.3954 20.4156C24.249 20.4156 24.1026 20.4156 24.1026 20.4156C23.9562 20.4156 23.9562 20.4156 23.8098 20.5715C23.6635 20.5715 23.6635 20.7273 23.5171 20.7273V23.6883H23.9562V20.8832C24.1026 20.8832 24.249 20.8831 24.3954 20.7273C24.5417 20.7273 24.6881 20.7273 24.8345 20.7273C24.9809 20.7273 25.1272 20.7273 25.2736 20.7273C25.42 20.7273 25.42 20.8832 25.5664 20.8832C25.5664 21.0389 25.7127 21.0389 25.7127 21.1948C25.7127 21.3507 25.7127 21.3507 25.7127 21.5065V23.6883H26.1519V21.6624C26.1519 21.3507 26.1519 21.1948 26.0055 21.0389C25.7127 20.8831 25.7127 20.7273 25.42 20.5715Z" fill="#8C8C8C"/>
<path d="M38.3014 20.7273C38.155 20.5714 37.8622 20.5714 37.4231 20.5714C36.984 20.5714 36.6912 20.7273 36.3985 21.039C36.1057 21.3506 36.1057 21.8182 36.1057 22.2858C36.1057 22.7532 36.2521 23.2208 36.3985 23.5325C36.6912 23.8441 36.984 24 37.4231 24C37.8622 24 38.155 23.8441 38.4477 23.5325C38.7405 23.2208 38.7405 22.7532 38.7405 22.2858C38.7405 21.9741 38.7405 21.6623 38.5941 21.3506C38.5941 21.039 38.4477 20.8832 38.3014 20.7273ZM38.3014 22.9091C38.3014 23.065 38.155 23.2208 38.0086 23.3767C37.8622 23.5325 37.7159 23.5325 37.4231 23.5325C37.1303 23.5325 36.8376 23.3767 36.6912 23.2208C36.5448 22.9091 36.5448 22.5974 36.5448 22.2858C36.5448 21.9741 36.5448 21.8182 36.6912 21.6623C36.6912 21.5065 36.8376 21.3506 36.984 21.1949C37.1303 21.039 37.2767 21.039 37.5695 21.039C37.8622 21.039 38.0086 21.039 38.155 21.1949C38.3014 21.3506 38.4477 21.5065 38.4477 21.6623C38.4477 21.8182 38.5941 22.1299 38.5941 22.2858C38.4477 22.4416 38.4477 22.5974 38.3014 22.9091Z" fill="#8C8C8C"/>
<path d="M50.0105 23.2208L48.9859 20.5714H48.4004L49.7178 23.8441H50.1569L51.4743 20.5714H51.0352L50.0105 23.2208Z" fill="#8C8C8C"/>
<path d="M63.4775 20.8832C63.4775 20.7273 63.3311 20.7273 63.1848 20.7273C63.0384 20.7273 63.0384 20.5714 62.892 20.5714C62.7456 20.5714 62.5993 20.5714 62.4529 20.5714C62.3065 20.5714 62.0138 20.5714 61.8674 20.5714C61.721 20.5714 61.4283 20.7273 61.4283 20.7273V21.1949C61.5746 21.039 61.721 21.039 61.8674 20.8832C62.0138 20.8832 62.1601 20.8832 62.4529 20.8832C62.7456 20.8832 62.892 20.8832 63.0384 21.039C63.1848 21.1949 63.1848 21.3506 63.1848 21.6623V22.1299C63.1848 22.1299 63.0384 22.1299 63.0384 21.9741C62.892 21.9741 62.892 21.9741 62.7456 21.8182C62.5993 21.8182 62.4529 21.8182 62.3065 21.8182C62.0138 21.8182 61.8674 21.8182 61.721 21.9741C61.5746 21.9741 61.4283 22.1299 61.2819 22.2858C61.1355 22.4416 61.1355 22.5974 61.1355 22.9091C61.1355 23.065 61.1355 23.2208 61.2819 23.3767C61.2819 23.5325 61.4283 23.5325 61.5746 23.6884C61.721 23.6884 61.8674 23.8441 62.0138 23.8441C62.1601 23.8441 62.3065 23.8441 62.4529 23.8441C62.7456 23.8441 62.892 23.8441 63.1848 23.8441C63.3311 23.8441 63.6239 23.6884 63.6239 23.6884C63.7703 23.5325 63.7703 23.3767 63.7703 23.2208V21.6623C63.7703 21.5065 63.7703 21.3506 63.7703 21.3506C63.6239 21.039 63.6239 20.8832 63.4775 20.8832ZM63.0384 23.3767C62.892 23.3767 62.7456 23.3767 62.4529 23.3767C62.3065 23.3767 62.1601 23.3767 62.0138 23.3767C61.8674 23.3767 61.721 23.2208 61.721 23.2208C61.5746 23.065 61.5746 23.065 61.5746 22.9091C61.5746 22.7532 61.5746 22.5974 61.721 22.4416C61.8674 22.2858 62.0138 22.2858 62.3065 22.2858C62.4529 22.2858 62.7456 22.2858 62.892 22.4416C63.0384 22.4416 63.0384 22.5974 63.1848 22.5974V23.3767C63.3311 23.2208 63.1848 23.3767 63.0384 23.3767Z" fill="#8C8C8C"/>
<path d="M74.6017 19.6364H74.1623V20.5715H73.5774V21.039H74.1623V23.065C74.1623 23.3767 74.3088 23.5326 74.4552 23.6884C74.6017 23.8443 74.7482 23.8443 75.0412 23.8443C75.1876 23.8443 75.1876 23.8443 75.3341 23.8443C75.4806 23.8443 75.4806 23.8443 75.4806 23.8443V23.3767H75.3341H75.1876C75.0411 23.3767 74.8947 23.3767 74.8947 23.2208C74.8947 23.065 74.7482 23.065 74.7482 22.7534V20.8832H75.4806V20.4157H74.7482V19.6364H74.6017Z" fill="#8C8C8C"/>
<path d="M85.8732 19.4806H85.4348V19.9481H85.8732V19.4806Z" fill="#26A4DA"/>
<path d="M85.8732 20.5714H85.4348V23.8441H85.8732V20.5714Z" fill="#8C8C8C"/>
<path d="M98.1683 20.7273C98.0218 20.5714 97.7289 20.5714 97.2905 20.5714C96.851 20.5714 96.5581 20.7273 96.2651 21.039C95.9722 21.3506 95.9722 21.8182 95.9722 22.2858C95.9722 22.7532 96.1186 23.2208 96.2651 23.5325C96.5581 23.8441 96.851 24 97.2905 24C97.7289 24 98.0218 23.8441 98.3148 23.5325C98.6078 23.2208 98.6077 22.7532 98.6077 22.2858C98.6077 21.9741 98.6078 21.6623 98.4613 21.3506C98.4613 21.039 98.3148 20.8832 98.1683 20.7273ZM98.1683 22.9091C98.1683 23.065 98.0218 23.2208 97.8754 23.3767C97.7289 23.5325 97.5824 23.5325 97.2905 23.5325C96.9975 23.5325 96.7046 23.3767 96.5581 23.2208C96.4116 22.9091 96.4116 22.5974 96.4116 22.2858C96.4116 21.9741 96.4116 21.8182 96.5581 21.6623C96.5581 21.5065 96.7046 21.3506 96.851 21.1949C96.9975 21.039 97.144 21.039 97.4369 21.039C97.7289 21.039 97.8754 21.039 98.0218 21.1949C98.1683 21.3506 98.3148 21.5065 98.3148 21.6623C98.3148 21.8182 98.4613 22.1299 98.4613 22.2858C98.3148 22.4416 98.3148 22.5974 98.1683 22.9091Z" fill="#8C8C8C"/>
<path d="M110.904 20.5715C110.758 20.4156 110.466 20.4156 110.173 20.4156C110.026 20.4156 109.88 20.4156 109.88 20.4156C109.733 20.4156 109.587 20.4156 109.587 20.4156C109.44 20.4156 109.44 20.4156 109.294 20.5715C109.148 20.5715 109.148 20.7273 109.002 20.7273V23.6883H109.44V20.8832C109.587 20.8832 109.733 20.8831 109.88 20.7273C110.026 20.7273 110.173 20.7273 110.319 20.7273C110.466 20.7273 110.612 20.7273 110.758 20.7273C110.904 20.7273 110.904 20.8832 111.051 20.8832C111.051 21.0389 111.197 21.0389 111.197 21.1948C111.197 21.3507 111.197 21.3507 111.197 21.5065V23.6883H111.637V21.6624C111.637 21.3507 111.637 21.1948 111.49 21.0389C111.197 20.8831 111.051 20.7273 110.904 20.5715Z" fill="#8C8C8C"/>
</svg>
