<svg width="40" height="41" viewBox="0 0 40 41" fill="none" xmlns="http://www.w3.org/2000/svg">
<rect x="0.75" y="0.884277" width="38.5" height="38.5" rx="19.25" stroke="#1F1F1F" stroke-width="1.5"/>
<path d="M28.5714 20.1343C28.5714 18.7263 28.5189 17.3308 28.4137 15.9491C28.3329 14.8544 27.8614 13.8252 27.0852 13.0491C26.309 12.2729 25.2798 11.8014 24.1851 11.7205C21.399 11.5103 18.601 11.5103 15.8149 11.7205C14.7202 11.8014 13.691 12.2729 12.9148 13.0491C12.1386 13.8252 11.6671 14.8544 11.5863 15.9491C11.5669 16.2005 11.5497 16.4531 11.5337 16.7057M28.5714 20.1343L32 16.7057M28.5714 20.1343L25.1429 16.7057M11.4286 20.1343C11.4286 21.5423 11.4811 22.9377 11.5863 24.3194C11.6671 25.4141 12.1386 26.4433 12.9148 27.2195C13.691 27.9956 14.7202 28.4671 15.8149 28.548C18.601 28.7583 21.399 28.7583 24.1851 28.548C25.2798 28.4671 26.309 27.9956 27.0852 27.2195C27.8614 26.4433 28.3329 25.4141 28.4137 24.3194C28.4331 24.068 28.4503 23.8154 28.4663 23.5628M11.4286 20.1343L14.8571 23.5628M11.4286 20.1343L8 23.5628" stroke="#1F1F1F" stroke-width="1.5" stroke-linecap="round" stroke-linejoin="round"/>
</svg>
