<svg width="24" height="24" viewBox="0 0 24 24" fill="none" xmlns="http://www.w3.org/2000/svg">
<path d="M11.1713 22C10.0737 22 9.14778 21.1827 9.01164 20.0935L8.93466 19.4777C8.88251 19.0604 8.59662 18.7186 8.23745 18.5C7.87888 18.2817 7.43852 18.2243 7.05152 18.3869L6.51371 18.6129C5.47683 19.0486 4.27774 18.6457 3.71424 17.6724L2.92106 16.3024C2.36642 15.3444 2.6126 14.1232 3.4951 13.4549L4.25493 12.8795C4.42157 12.7533 4.49995 12.5465 4.49995 12.3375V11.6625C4.49995 11.4535 4.42157 11.2467 4.25493 11.1205L3.4951 10.5451C2.6126 9.87681 2.36642 8.65565 2.92106 7.69762L3.71424 6.3276C4.27774 5.35427 5.47683 4.95142 6.5137 5.38708L7.0418 5.60897C7.43483 5.77411 7.88171 5.71481 8.24995 5.5C8.60853 5.29083 8.88173 4.94579 8.93322 4.53387L9.00861 3.93076C9.14648 2.82774 10.0841 2 11.1957 2H12.8286C13.9262 2 14.8521 2.81734 14.9883 3.90651L15.0652 4.52233C15.1174 4.93955 15.4033 5.28138 15.7625 5.5C16.121 5.71826 16.5614 5.77566 16.9484 5.61305L17.4862 5.38708C18.5231 4.95142 19.7222 5.35427 20.2857 6.3276L21.0788 7.69763C21.6335 8.65565 21.3873 9.87681 20.5048 10.5451L19.745 11.1205C19.5783 11.2467 19.5 11.4535 19.5 11.6625V12.3375C19.5 12.5438 19.5583 12.7571 19.7228 12.8816L20.5742 13.5264C21.4028 14.1539 21.6339 15.3004 21.1132 16.1999L20.2534 17.6849C19.6945 18.6503 18.504 19.0483 17.4768 18.6131L16.9573 18.3929C16.5649 18.2267 16.118 18.2853 15.75 18.5C15.3914 18.7092 15.1182 19.0542 15.0667 19.4661L14.9913 20.0692C14.8534 21.1723 13.9158 22 12.8042 22H11.1713ZM10.8792 19.0153C10.9481 19.5775 11.4256 20 11.9921 20C12.5546 20 13.03 19.5832 13.1036 19.0256L13.1727 18.5024C13.2647 17.806 13.7834 17.2589 14.4141 16.9495C14.5327 16.8913 14.6488 16.829 14.7625 16.7625C14.8721 16.6984 14.9794 16.6309 15.0844 16.5601C15.6649 16.1687 16.3967 15.9996 17.0435 16.2675L17.5454 16.4754C18.0626 16.6896 18.6585 16.4863 18.9371 16.0007C19.2159 15.5144 19.0898 14.8967 18.6426 14.5587L17.8808 13.9829C17.5203 13.7104 17.3921 13.2357 17.45 12.7875C17.4833 12.5292 17.5 12.2667 17.5 12C17.5 11.7333 17.4833 11.4708 17.45 11.2125C17.3921 10.7643 17.5203 10.2896 17.8808 10.0171L18.646 9.43875C19.0912 9.10222 19.2168 8.48714 18.9392 8.00299C18.66 7.51628 18.0612 7.31491 17.5447 7.53404L17.0584 7.74037C16.4063 8.01701 15.6653 7.838 15.0803 7.43864C14.9766 7.36784 14.8707 7.30079 14.7625 7.2375C14.6485 7.17087 14.5321 7.1084 14.4132 7.05008C13.7841 6.74154 13.2689 6.19267 13.1836 5.49715L13.1207 4.98474C13.0518 4.4225 12.5743 4 12.0078 4C11.4453 4 10.9699 4.41677 10.8963 4.97442L10.8272 5.49757C10.7352 6.19403 10.2165 6.74106 9.58582 7.05051C9.46722 7.1087 9.35109 7.17103 9.23745 7.2375C9.12782 7.30163 9.02049 7.36909 8.91548 7.43989C8.33501 7.83125 7.60324 8.00035 6.95644 7.73248L6.45113 7.52322C5.93581 7.3098 5.34217 7.51229 5.06467 7.99612C4.78528 8.48328 4.9141 9.10239 5.36462 9.43766L6.10619 9.98953C6.47543 10.2643 6.61078 10.7438 6.54995 11.2C6.51662 11.45 6.49995 11.7167 6.49995 12C6.49995 12.2667 6.51662 12.525 6.54995 12.775C6.61087 13.2319 6.47737 13.7121 6.10963 13.9901L5.35392 14.5612C4.90866 14.8978 4.78306 15.5129 5.06074 15.997C5.33988 16.4837 5.93867 16.6851 6.45518 16.466L6.94154 16.2596C7.59361 15.983 8.33456 16.162 8.91957 16.5614C9.02328 16.6322 9.12924 16.6992 9.23745 16.7625C9.35137 16.8291 9.46778 16.8916 9.58668 16.9499C10.2158 17.2585 10.731 17.8073 10.8163 18.5028L10.8792 19.0153ZM12.05 15.5C13.0166 15.5 13.8416 15.1583 14.525 14.475C15.2083 13.7917 15.55 12.9667 15.55 12C15.55 11.0333 15.2083 10.2083 14.525 9.525C13.8416 8.84167 13.0166 8.5 12.05 8.5C11.0666 8.5 10.2375 8.84167 9.56245 9.525C8.88745 10.2083 8.54995 11.0333 8.54995 12C8.54995 12.9667 8.88745 13.7917 9.56245 14.475C10.2375 15.1583 11.0666 15.5 12.05 15.5Z" fill="#595959"/>
</svg>
