<svg width="40" height="41" viewBox="0 0 40 41" fill="none" xmlns="http://www.w3.org/2000/svg">
<rect x="0.75" y="0.884277" width="38.5" height="38.5" rx="19.25" stroke="#1F1F1F" stroke-width="1.5"/>
<path d="M23.5624 18.9468L22.3749 29.634M28.3122 18.9468L23.5624 10.6345M8.12524 18.9468H31.8746M9.90645 18.9468L11.8064 27.7341C11.9174 28.2786 12.2159 28.7669 12.6498 29.1141C13.0838 29.4612 13.6257 29.6452 14.1813 29.634H25.8185C26.3742 29.6452 26.9161 29.4612 27.35 29.1141C27.784 28.7669 28.0825 28.2786 28.1935 27.7341L30.2122 18.9468M11.0939 24.2904H28.906M11.6877 18.9468L16.4375 10.6345M16.4375 18.9468L17.625 29.634" stroke="#1F1F1F" stroke-width="1.5" stroke-linecap="round" stroke-linejoin="round"/>
</svg>
