<svg width="24" height="24" viewBox="0 0 24 24" fill="none" xmlns="http://www.w3.org/2000/svg">
<path d="M23.9898 15.7464L23.8927 1.61329C23.8872 0.815453 23.2369 0.165147 22.4391 0.159666L19.2097 0.137482L19.3167 15.7144C19.3304 17.6899 17.7267 19.2936 15.7322 19.2988L8.4566 19.2299C6.48099 19.2163 4.85523 17.5905 4.82254 15.5958L4.77246 8.30123C4.75883 6.32569 6.36248 4.72204 8.35694 4.71675L14.5497 4.75932L14.5176 0.0862569L8.30595 0.0625752C3.74686 0.0312769 0.0492213 3.72891 0.0805195 8.28801L0.130596 15.5826C0.161963 20.1416 3.91079 23.8904 8.46982 23.9218L15.7644 23.9719C20.3423 23.9843 24.0211 20.3055 23.9898 15.7464Z" fill="#26A4DA"/>
<path d="M12.6271 14.9383L14.8181 12.7772C15.1427 12.4571 15.1427 11.9502 14.8181 11.6301L12.0591 8.93536L9.30008 11.6567C8.97549 11.9769 8.97549 12.4838 9.30008 12.804L11.4911 14.9651C11.7886 15.2318 12.3025 15.2318 12.6271 14.9383Z" fill="#939598"/>
</svg>
